<mxfile host="www.draw.io" modified="2019-10-16T10:16:44.110Z" agent="Mozilla/5.0 (X11; Linux x86_64) AppleWebKit/537.36 (KHTML, like Gecko) Chrome/73.0.3683.75 Safari/537.36" etag="oMyszdgR7Y6bd-Mnmou3" version="12.1.1" type="github" pages="1">
  <diagram id="EdAOTdUpAiUYNW-F2-T8" name="Page-1">
    <mxGraphModel dx="1021" dy="549" grid="1" gridSize="10" guides="1" tooltips="1" connect="1" arrows="1" fold="1" page="1" pageScale="1" pageWidth="827" pageHeight="1169" math="0" shadow="0">
      <root>
        <mxCell id="0"/>
        <mxCell id="1" parent="0"/>
        <mxCell id="xlTgU6gEici19xFDkvJ_-10" style="edgeStyle=orthogonalEdgeStyle;rounded=0;orthogonalLoop=1;jettySize=auto;html=1;exitX=0.25;exitY=1;exitDx=0;exitDy=0;entryX=0.25;entryY=0;entryDx=0;entryDy=0;fontStyle=1" parent="1" source="xlTgU6gEici19xFDkvJ_-1" edge="1">
          <mxGeometry relative="1" as="geometry">
            <mxPoint x="110" y="240.14285714285722" as="targetPoint"/>
          </mxGeometry>
        </mxCell>
        <mxCell id="xlTgU6gEici19xFDkvJ_-1" value="Istruction&lt;br&gt;Cache" style="rounded=0;whiteSpace=wrap;html=1;fontStyle=1;strokeWidth=2;" parent="1" vertex="1">
          <mxGeometry x="80" y="40" width="120" height="120" as="geometry"/>
        </mxCell>
        <mxCell id="xlTgU6gEici19xFDkvJ_-11" style="edgeStyle=orthogonalEdgeStyle;rounded=0;orthogonalLoop=1;jettySize=auto;html=1;exitX=0.75;exitY=0;exitDx=0;exitDy=0;entryX=0.75;entryY=1;entryDx=0;entryDy=0;fontStyle=1" parent="1" target="xlTgU6gEici19xFDkvJ_-1" edge="1">
          <mxGeometry relative="1" as="geometry">
            <mxPoint x="170" y="240.14285714285722" as="sourcePoint"/>
          </mxGeometry>
        </mxCell>
        <mxCell id="xlTgU6gEici19xFDkvJ_-9" style="edgeStyle=orthogonalEdgeStyle;rounded=0;orthogonalLoop=1;jettySize=auto;html=1;exitX=0.995;exitY=0.005;exitDx=0;exitDy=0;entryX=0.75;entryY=1;entryDx=0;entryDy=0;exitPerimeter=0;" parent="1" target="xlTgU6gEici19xFDkvJ_-6" edge="1">
          <mxGeometry relative="1" as="geometry">
            <mxPoint x="611.4285714285716" y="240.14285714285722" as="sourcePoint"/>
            <Array as="points">
              <mxPoint x="610" y="240"/>
              <mxPoint x="610" y="200"/>
              <mxPoint x="581" y="200"/>
            </Array>
          </mxGeometry>
        </mxCell>
        <mxCell id="xlTgU6gEici19xFDkvJ_-8" style="edgeStyle=orthogonalEdgeStyle;rounded=0;orthogonalLoop=1;jettySize=auto;html=1;exitX=0.25;exitY=1;exitDx=0;exitDy=0;entryX=0.5;entryY=0;entryDx=0;entryDy=0;" parent="1" source="xlTgU6gEici19xFDkvJ_-6" edge="1">
          <mxGeometry relative="1" as="geometry">
            <mxPoint x="490" y="240" as="targetPoint"/>
          </mxGeometry>
        </mxCell>
        <mxCell id="xlTgU6gEici19xFDkvJ_-6" value="Data&lt;br&gt;Cache" style="rounded=0;whiteSpace=wrap;html=1;fontStyle=1;strokeWidth=2;" parent="1" vertex="1">
          <mxGeometry x="491" y="40" width="120" height="120" as="geometry"/>
        </mxCell>
        <mxCell id="irvHG1Zd0JY4UcYgfSvA-1" style="edgeStyle=orthogonalEdgeStyle;rounded=0;orthogonalLoop=1;jettySize=auto;html=1;exitX=0.25;exitY=1;exitDx=0;exitDy=0;entryX=0.25;entryY=0;entryDx=0;entryDy=0;fontStyle=1" edge="1" parent="1" source="irvHG1Zd0JY4UcYgfSvA-2" target="irvHG1Zd0JY4UcYgfSvA-5">
          <mxGeometry relative="1" as="geometry"/>
        </mxCell>
        <mxCell id="irvHG1Zd0JY4UcYgfSvA-2" value="Fetch1" style="rounded=0;whiteSpace=wrap;html=1;fontStyle=1;strokeWidth=2;" vertex="1" parent="1">
          <mxGeometry x="80" y="240" width="120" height="60" as="geometry"/>
        </mxCell>
        <mxCell id="irvHG1Zd0JY4UcYgfSvA-3" style="edgeStyle=orthogonalEdgeStyle;rounded=0;orthogonalLoop=1;jettySize=auto;html=1;exitX=0.75;exitY=0;exitDx=0;exitDy=0;fontStyle=1;entryX=0.75;entryY=1;entryDx=0;entryDy=0;" edge="1" parent="1" source="irvHG1Zd0JY4UcYgfSvA-5" target="irvHG1Zd0JY4UcYgfSvA-2">
          <mxGeometry relative="1" as="geometry">
            <mxPoint x="90" y="400" as="targetPoint"/>
          </mxGeometry>
        </mxCell>
        <mxCell id="irvHG1Zd0JY4UcYgfSvA-4" style="edgeStyle=orthogonalEdgeStyle;rounded=0;orthogonalLoop=1;jettySize=auto;html=1;exitX=0.5;exitY=1;exitDx=0;exitDy=0;entryX=0.5;entryY=0;entryDx=0;entryDy=0;fontStyle=1" edge="1" parent="1" source="irvHG1Zd0JY4UcYgfSvA-5" target="irvHG1Zd0JY4UcYgfSvA-7">
          <mxGeometry relative="1" as="geometry"/>
        </mxCell>
        <mxCell id="irvHG1Zd0JY4UcYgfSvA-5" value="Fetch2" style="rounded=0;whiteSpace=wrap;html=1;fontStyle=1;strokeWidth=2;" vertex="1" parent="1">
          <mxGeometry x="80" y="370" width="120" height="60" as="geometry"/>
        </mxCell>
        <mxCell id="irvHG1Zd0JY4UcYgfSvA-6" style="edgeStyle=orthogonalEdgeStyle;rounded=0;orthogonalLoop=1;jettySize=auto;html=1;exitX=1;exitY=0.5;exitDx=0;exitDy=0;entryX=0;entryY=0.25;entryDx=0;entryDy=0;" edge="1" parent="1" source="irvHG1Zd0JY4UcYgfSvA-7" target="irvHG1Zd0JY4UcYgfSvA-9">
          <mxGeometry relative="1" as="geometry">
            <mxPoint x="270" y="348" as="targetPoint"/>
            <Array as="points">
              <mxPoint x="230" y="530"/>
              <mxPoint x="230" y="363"/>
            </Array>
          </mxGeometry>
        </mxCell>
        <mxCell id="irvHG1Zd0JY4UcYgfSvA-7" value="&lt;span&gt;Decode&lt;/span&gt;" style="rounded=0;whiteSpace=wrap;html=1;fontStyle=1;strokeWidth=2;" vertex="1" parent="1">
          <mxGeometry x="80" y="499.5" width="120" height="60" as="geometry"/>
        </mxCell>
        <mxCell id="irvHG1Zd0JY4UcYgfSvA-8" style="edgeStyle=orthogonalEdgeStyle;rounded=0;orthogonalLoop=1;jettySize=auto;html=1;entryX=0;entryY=0.5;entryDx=0;entryDy=0;exitX=0;exitY=0.75;exitDx=0;exitDy=0;" edge="1" parent="1" source="irvHG1Zd0JY4UcYgfSvA-9" target="irvHG1Zd0JY4UcYgfSvA-2">
          <mxGeometry relative="1" as="geometry">
            <Array as="points">
              <mxPoint x="40" y="608"/>
              <mxPoint x="40" y="270"/>
            </Array>
            <mxPoint x="270" y="563" as="sourcePoint"/>
          </mxGeometry>
        </mxCell>
        <mxCell id="irvHG1Zd0JY4UcYgfSvA-9" value="&amp;nbsp; &amp;nbsp; &amp;nbsp; &amp;nbsp; &amp;nbsp; &lt;br&gt;&amp;nbsp; &amp;nbsp; &amp;nbsp; &amp;nbsp; &amp;nbsp; &amp;nbsp; &amp;nbsp; &amp;nbsp; &amp;nbsp; &lt;b&gt;Execute&lt;/b&gt;" style="rounded=0;whiteSpace=wrap;html=1;verticalAlign=top;labelPosition=center;verticalLabelPosition=middle;align=left;strokeWidth=2;" vertex="1" parent="1">
          <mxGeometry x="250" y="240" width="460" height="490" as="geometry"/>
        </mxCell>
        <mxCell id="irvHG1Zd0JY4UcYgfSvA-10" value="C&lt;br&gt;o&lt;br&gt;m&lt;br&gt;m&lt;br&gt;i&lt;br&gt;t" style="rounded=0;whiteSpace=wrap;html=1;align=center;strokeWidth=1;" vertex="1" parent="1">
          <mxGeometry x="650" y="360" width="20" height="267" as="geometry"/>
        </mxCell>
        <mxCell id="irvHG1Zd0JY4UcYgfSvA-11" value="Scoreboard" style="rounded=0;whiteSpace=wrap;html=1;strokeWidth=1;" vertex="1" parent="1">
          <mxGeometry x="331" y="650" width="270" height="30" as="geometry"/>
        </mxCell>
        <mxCell id="irvHG1Zd0JY4UcYgfSvA-12" value="Int&amp;nbsp;" style="rounded=0;whiteSpace=wrap;html=1;align=right;labelPosition=left;verticalLabelPosition=middle;verticalAlign=middle;strokeWidth=2;" vertex="1" parent="1">
          <mxGeometry x="510" y="436.5588235294117" width="90" height="30" as="geometry"/>
        </mxCell>
        <mxCell id="irvHG1Zd0JY4UcYgfSvA-13" value="" style="endArrow=none;html=1;exitX=0.338;exitY=0.997;exitDx=0;exitDy=0;exitPerimeter=0;entryX=0.342;entryY=0.003;entryDx=0;entryDy=0;entryPerimeter=0;strokeWidth=2;" edge="1" parent="1" source="irvHG1Zd0JY4UcYgfSvA-12" target="irvHG1Zd0JY4UcYgfSvA-12">
          <mxGeometry width="50" height="50" relative="1" as="geometry">
            <mxPoint x="-20" y="539.5588235294117" as="sourcePoint"/>
            <mxPoint x="381" y="359.5588235294117" as="targetPoint"/>
          </mxGeometry>
        </mxCell>
        <mxCell id="irvHG1Zd0JY4UcYgfSvA-14" value="" style="endArrow=none;html=1;exitX=0.668;exitY=1.01;exitDx=0;exitDy=0;exitPerimeter=0;entryX=0.672;entryY=-0.003;entryDx=0;entryDy=0;entryPerimeter=0;strokeWidth=2;" edge="1" parent="1" source="irvHG1Zd0JY4UcYgfSvA-12" target="irvHG1Zd0JY4UcYgfSvA-12">
          <mxGeometry width="50" height="50" relative="1" as="geometry">
            <mxPoint x="419.79999999999995" y="419.9388235294118" as="sourcePoint"/>
            <mxPoint x="420" y="359.5588235294117" as="targetPoint"/>
          </mxGeometry>
        </mxCell>
        <mxCell id="irvHG1Zd0JY4UcYgfSvA-15" value="Mul" style="rounded=0;whiteSpace=wrap;html=1;align=right;labelPosition=left;verticalLabelPosition=middle;verticalAlign=middle;strokeWidth=2;" vertex="1" parent="1">
          <mxGeometry x="510" y="475.5588235294117" width="90" height="30" as="geometry"/>
        </mxCell>
        <mxCell id="irvHG1Zd0JY4UcYgfSvA-16" value="" style="endArrow=none;html=1;exitX=0.338;exitY=0.997;exitDx=0;exitDy=0;exitPerimeter=0;entryX=0.342;entryY=0.003;entryDx=0;entryDy=0;entryPerimeter=0;strokeWidth=2;" edge="1" parent="1" source="irvHG1Zd0JY4UcYgfSvA-15" target="irvHG1Zd0JY4UcYgfSvA-15">
          <mxGeometry width="50" height="50" relative="1" as="geometry">
            <mxPoint x="-20" y="579.5588235294117" as="sourcePoint"/>
            <mxPoint x="381" y="399.5588235294117" as="targetPoint"/>
          </mxGeometry>
        </mxCell>
        <mxCell id="irvHG1Zd0JY4UcYgfSvA-17" value="" style="endArrow=none;html=1;exitX=0.668;exitY=1.01;exitDx=0;exitDy=0;exitPerimeter=0;entryX=0.672;entryY=-0.003;entryDx=0;entryDy=0;entryPerimeter=0;strokeWidth=2;" edge="1" parent="1" source="irvHG1Zd0JY4UcYgfSvA-15" target="irvHG1Zd0JY4UcYgfSvA-15">
          <mxGeometry width="50" height="50" relative="1" as="geometry">
            <mxPoint x="419.79999999999995" y="459.9388235294118" as="sourcePoint"/>
            <mxPoint x="420" y="399.5588235294117" as="targetPoint"/>
          </mxGeometry>
        </mxCell>
        <mxCell id="irvHG1Zd0JY4UcYgfSvA-18" value="Div" style="rounded=0;whiteSpace=wrap;html=1;align=right;labelPosition=left;verticalLabelPosition=middle;verticalAlign=middle;strokeWidth=2;" vertex="1" parent="1">
          <mxGeometry x="330" y="597.0588235294117" width="90" height="30" as="geometry"/>
        </mxCell>
        <mxCell id="irvHG1Zd0JY4UcYgfSvA-19" value="" style="endArrow=none;html=1;exitX=0.338;exitY=0.997;exitDx=0;exitDy=0;exitPerimeter=0;entryX=0.342;entryY=0.003;entryDx=0;entryDy=0;entryPerimeter=0;strokeWidth=2;" edge="1" parent="1" source="irvHG1Zd0JY4UcYgfSvA-18" target="irvHG1Zd0JY4UcYgfSvA-18">
          <mxGeometry width="50" height="50" relative="1" as="geometry">
            <mxPoint x="-20" y="619.5588235294117" as="sourcePoint"/>
            <mxPoint x="381" y="439.5588235294117" as="targetPoint"/>
          </mxGeometry>
        </mxCell>
        <mxCell id="irvHG1Zd0JY4UcYgfSvA-20" value="" style="endArrow=none;html=1;exitX=0.668;exitY=1.01;exitDx=0;exitDy=0;exitPerimeter=0;entryX=0.672;entryY=-0.003;entryDx=0;entryDy=0;entryPerimeter=0;strokeWidth=2;" edge="1" parent="1" source="irvHG1Zd0JY4UcYgfSvA-18" target="irvHG1Zd0JY4UcYgfSvA-18">
          <mxGeometry width="50" height="50" relative="1" as="geometry">
            <mxPoint x="419.79999999999995" y="499.9388235294118" as="sourcePoint"/>
            <mxPoint x="420" y="439.5588235294117" as="targetPoint"/>
          </mxGeometry>
        </mxCell>
        <mxCell id="irvHG1Zd0JY4UcYgfSvA-21" value="" style="rounded=0;whiteSpace=wrap;html=1;align=right;labelPosition=left;verticalLabelPosition=middle;verticalAlign=middle;strokeWidth=2;" vertex="1" parent="1">
          <mxGeometry x="420" y="597.0588235294117" width="90" height="30" as="geometry"/>
        </mxCell>
        <mxCell id="irvHG1Zd0JY4UcYgfSvA-22" value="" style="endArrow=none;html=1;exitX=0.338;exitY=0.997;exitDx=0;exitDy=0;exitPerimeter=0;entryX=0.342;entryY=0.003;entryDx=0;entryDy=0;entryPerimeter=0;strokeWidth=2;" edge="1" parent="1" source="irvHG1Zd0JY4UcYgfSvA-21" target="irvHG1Zd0JY4UcYgfSvA-21">
          <mxGeometry width="50" height="50" relative="1" as="geometry">
            <mxPoint x="-325" y="659.5588235294117" as="sourcePoint"/>
            <mxPoint x="76" y="479.5588235294117" as="targetPoint"/>
          </mxGeometry>
        </mxCell>
        <mxCell id="irvHG1Zd0JY4UcYgfSvA-23" value="" style="endArrow=none;html=1;exitX=0.668;exitY=1.01;exitDx=0;exitDy=0;exitPerimeter=0;entryX=0.672;entryY=-0.003;entryDx=0;entryDy=0;entryPerimeter=0;strokeWidth=2;" edge="1" parent="1" source="irvHG1Zd0JY4UcYgfSvA-21" target="irvHG1Zd0JY4UcYgfSvA-21">
          <mxGeometry width="50" height="50" relative="1" as="geometry">
            <mxPoint x="114.79999999999995" y="539.9388235294118" as="sourcePoint"/>
            <mxPoint x="115" y="479.5588235294117" as="targetPoint"/>
          </mxGeometry>
        </mxCell>
        <mxCell id="irvHG1Zd0JY4UcYgfSvA-24" value="" style="rounded=0;whiteSpace=wrap;html=1;align=right;labelPosition=left;verticalLabelPosition=middle;verticalAlign=middle;strokeWidth=2;" vertex="1" parent="1">
          <mxGeometry x="510" y="597.0588235294117" width="90" height="30" as="geometry"/>
        </mxCell>
        <mxCell id="irvHG1Zd0JY4UcYgfSvA-25" value="" style="endArrow=none;html=1;exitX=0.338;exitY=0.997;exitDx=0;exitDy=0;exitPerimeter=0;entryX=0.342;entryY=0.003;entryDx=0;entryDy=0;entryPerimeter=0;strokeWidth=2;" edge="1" parent="1" source="irvHG1Zd0JY4UcYgfSvA-24" target="irvHG1Zd0JY4UcYgfSvA-24">
          <mxGeometry width="50" height="50" relative="1" as="geometry">
            <mxPoint x="-315" y="669.5588235294117" as="sourcePoint"/>
            <mxPoint x="86" y="489.5588235294117" as="targetPoint"/>
          </mxGeometry>
        </mxCell>
        <mxCell id="irvHG1Zd0JY4UcYgfSvA-26" value="" style="endArrow=none;html=1;exitX=0.668;exitY=1.01;exitDx=0;exitDy=0;exitPerimeter=0;entryX=0.672;entryY=-0.003;entryDx=0;entryDy=0;entryPerimeter=0;strokeWidth=2;" edge="1" parent="1" source="irvHG1Zd0JY4UcYgfSvA-24" target="irvHG1Zd0JY4UcYgfSvA-24">
          <mxGeometry width="50" height="50" relative="1" as="geometry">
            <mxPoint x="124.79999999999995" y="549.9388235294118" as="sourcePoint"/>
            <mxPoint x="125" y="489.5588235294117" as="targetPoint"/>
          </mxGeometry>
        </mxCell>
        <mxCell id="irvHG1Zd0JY4UcYgfSvA-27" value="Float" style="rounded=0;whiteSpace=wrap;html=1;align=right;labelPosition=left;verticalLabelPosition=middle;verticalAlign=middle;strokeWidth=2;" vertex="1" parent="1">
          <mxGeometry x="420" y="555.5588235294117" width="90" height="30" as="geometry"/>
        </mxCell>
        <mxCell id="irvHG1Zd0JY4UcYgfSvA-28" value="" style="endArrow=none;html=1;exitX=0.338;exitY=0.997;exitDx=0;exitDy=0;exitPerimeter=0;entryX=0.342;entryY=0.003;entryDx=0;entryDy=0;entryPerimeter=0;strokeWidth=2;" edge="1" parent="1" source="irvHG1Zd0JY4UcYgfSvA-27" target="irvHG1Zd0JY4UcYgfSvA-27">
          <mxGeometry width="50" height="50" relative="1" as="geometry">
            <mxPoint x="-305" y="679.5588235294117" as="sourcePoint"/>
            <mxPoint x="96" y="499.5588235294117" as="targetPoint"/>
          </mxGeometry>
        </mxCell>
        <mxCell id="irvHG1Zd0JY4UcYgfSvA-29" value="" style="endArrow=none;html=1;exitX=0.668;exitY=1.01;exitDx=0;exitDy=0;exitPerimeter=0;entryX=0.672;entryY=-0.003;entryDx=0;entryDy=0;entryPerimeter=0;strokeWidth=2;" edge="1" parent="1" source="irvHG1Zd0JY4UcYgfSvA-27" target="irvHG1Zd0JY4UcYgfSvA-27">
          <mxGeometry width="50" height="50" relative="1" as="geometry">
            <mxPoint x="134.79999999999995" y="559.9388235294118" as="sourcePoint"/>
            <mxPoint x="135" y="499.5588235294117" as="targetPoint"/>
          </mxGeometry>
        </mxCell>
        <mxCell id="irvHG1Zd0JY4UcYgfSvA-30" value="" style="rounded=0;whiteSpace=wrap;html=1;align=right;labelPosition=left;verticalLabelPosition=middle;verticalAlign=middle;strokeWidth=2;" vertex="1" parent="1">
          <mxGeometry x="510" y="555.5588235294117" width="90" height="30" as="geometry"/>
        </mxCell>
        <mxCell id="irvHG1Zd0JY4UcYgfSvA-31" value="" style="endArrow=none;html=1;exitX=0.338;exitY=0.997;exitDx=0;exitDy=0;exitPerimeter=0;entryX=0.342;entryY=0.003;entryDx=0;entryDy=0;entryPerimeter=0;strokeWidth=2;" edge="1" parent="1" source="irvHG1Zd0JY4UcYgfSvA-30" target="irvHG1Zd0JY4UcYgfSvA-30">
          <mxGeometry width="50" height="50" relative="1" as="geometry">
            <mxPoint x="-295" y="689.5588235294117" as="sourcePoint"/>
            <mxPoint x="106" y="509.5588235294117" as="targetPoint"/>
          </mxGeometry>
        </mxCell>
        <mxCell id="irvHG1Zd0JY4UcYgfSvA-32" value="" style="endArrow=none;html=1;exitX=0.668;exitY=1.01;exitDx=0;exitDy=0;exitPerimeter=0;entryX=0.672;entryY=-0.003;entryDx=0;entryDy=0;entryPerimeter=0;strokeWidth=2;" edge="1" parent="1" source="irvHG1Zd0JY4UcYgfSvA-30" target="irvHG1Zd0JY4UcYgfSvA-30">
          <mxGeometry width="50" height="50" relative="1" as="geometry">
            <mxPoint x="144.79999999999995" y="569.9388235294118" as="sourcePoint"/>
            <mxPoint x="145" y="509.5588235294117" as="targetPoint"/>
          </mxGeometry>
        </mxCell>
        <mxCell id="irvHG1Zd0JY4UcYgfSvA-33" value="Mem" style="rounded=0;whiteSpace=wrap;html=1;align=right;labelPosition=left;verticalLabelPosition=middle;verticalAlign=middle;strokeWidth=2;" vertex="1" parent="1">
          <mxGeometry x="510" y="514.5588235294117" width="90" height="30" as="geometry"/>
        </mxCell>
        <mxCell id="irvHG1Zd0JY4UcYgfSvA-34" value="" style="endArrow=none;html=1;exitX=0.338;exitY=0.997;exitDx=0;exitDy=0;exitPerimeter=0;entryX=0.342;entryY=0.003;entryDx=0;entryDy=0;entryPerimeter=0;strokeWidth=2;" edge="1" parent="1" source="irvHG1Zd0JY4UcYgfSvA-33" target="irvHG1Zd0JY4UcYgfSvA-33">
          <mxGeometry width="50" height="50" relative="1" as="geometry">
            <mxPoint x="-20" y="697.5588235294117" as="sourcePoint"/>
            <mxPoint x="381" y="517.5588235294117" as="targetPoint"/>
          </mxGeometry>
        </mxCell>
        <mxCell id="irvHG1Zd0JY4UcYgfSvA-35" value="" style="endArrow=none;html=1;exitX=0.668;exitY=1.01;exitDx=0;exitDy=0;exitPerimeter=0;entryX=0.672;entryY=-0.003;entryDx=0;entryDy=0;entryPerimeter=0;strokeWidth=2;" edge="1" parent="1" source="irvHG1Zd0JY4UcYgfSvA-33" target="irvHG1Zd0JY4UcYgfSvA-33">
          <mxGeometry width="50" height="50" relative="1" as="geometry">
            <mxPoint x="419.79999999999995" y="577.9388235294118" as="sourcePoint"/>
            <mxPoint x="420" y="517.5588235294117" as="targetPoint"/>
          </mxGeometry>
        </mxCell>
        <mxCell id="irvHG1Zd0JY4UcYgfSvA-36" value="Misc" style="rounded=0;whiteSpace=wrap;html=1;align=right;labelPosition=left;verticalLabelPosition=middle;verticalAlign=middle;strokeWidth=2;" vertex="1" parent="1">
          <mxGeometry x="570" y="360.0588235294117" width="30" height="30" as="geometry"/>
        </mxCell>
        <mxCell id="irvHG1Zd0JY4UcYgfSvA-37" value="" style="rounded=0;whiteSpace=wrap;html=1;align=left;verticalAlign=top;labelPosition=right;verticalLabelPosition=middle;" vertex="1" parent="1">
          <mxGeometry x="610" y="240" width="30" height="60" as="geometry"/>
        </mxCell>
        <mxCell id="irvHG1Zd0JY4UcYgfSvA-38" value="" style="endArrow=none;html=1;entryX=0;entryY=0.5;entryDx=0;entryDy=0;exitX=1;exitY=0.5;exitDx=0;exitDy=0;" edge="1" parent="1" source="irvHG1Zd0JY4UcYgfSvA-37" target="irvHG1Zd0JY4UcYgfSvA-37">
          <mxGeometry width="50" height="50" relative="1" as="geometry">
            <mxPoint x="345" y="480" as="sourcePoint"/>
            <mxPoint x="395" y="430" as="targetPoint"/>
          </mxGeometry>
        </mxCell>
        <mxCell id="irvHG1Zd0JY4UcYgfSvA-39" value="" style="endArrow=none;html=1;entryX=0;entryY=0.75;entryDx=0;entryDy=0;exitX=1;exitY=0.75;exitDx=0;exitDy=0;" edge="1" parent="1" source="irvHG1Zd0JY4UcYgfSvA-37" target="irvHG1Zd0JY4UcYgfSvA-37">
          <mxGeometry width="50" height="50" relative="1" as="geometry">
            <mxPoint x="345" y="480" as="sourcePoint"/>
            <mxPoint x="395" y="430" as="targetPoint"/>
          </mxGeometry>
        </mxCell>
        <mxCell id="irvHG1Zd0JY4UcYgfSvA-40" value="Load&lt;br&gt;Req" style="rounded=0;whiteSpace=wrap;html=1;align=center;labelPosition=center;verticalLabelPosition=middle;verticalAlign=middle;" vertex="1" parent="1">
          <mxGeometry x="580" y="240" width="30" height="30" as="geometry"/>
        </mxCell>
        <mxCell id="irvHG1Zd0JY4UcYgfSvA-41" value="Store&lt;br&gt;Buf" style="text;html=1;strokeColor=none;fillColor=none;align=center;verticalAlign=middle;whiteSpace=wrap;rounded=0;" vertex="1" parent="1">
          <mxGeometry x="610" y="240" width="30" height="30" as="geometry"/>
        </mxCell>
        <mxCell id="irvHG1Zd0JY4UcYgfSvA-42" value="Input Buf" style="rounded=0;whiteSpace=wrap;html=1;align=center;labelPosition=center;verticalLabelPosition=bottom;verticalAlign=top;" vertex="1" parent="1">
          <mxGeometry x="290" y="360" width="40" height="80" as="geometry"/>
        </mxCell>
        <mxCell id="irvHG1Zd0JY4UcYgfSvA-43" value="" style="endArrow=none;html=1;entryX=0.5;entryY=0;entryDx=0;entryDy=0;exitX=0.5;exitY=1;exitDx=0;exitDy=0;" edge="1" parent="1" source="irvHG1Zd0JY4UcYgfSvA-42" target="irvHG1Zd0JY4UcYgfSvA-42">
          <mxGeometry width="50" height="50" relative="1" as="geometry">
            <mxPoint x="-30" y="730" as="sourcePoint"/>
            <mxPoint x="20" y="680" as="targetPoint"/>
          </mxGeometry>
        </mxCell>
        <mxCell id="irvHG1Zd0JY4UcYgfSvA-44" value="" style="endArrow=none;html=1;entryX=0.25;entryY=0;entryDx=0;entryDy=0;exitX=0.25;exitY=1;exitDx=0;exitDy=0;" edge="1" parent="1" source="irvHG1Zd0JY4UcYgfSvA-42" target="irvHG1Zd0JY4UcYgfSvA-42">
          <mxGeometry width="50" height="50" relative="1" as="geometry">
            <mxPoint x="-30" y="730" as="sourcePoint"/>
            <mxPoint x="20" y="680" as="targetPoint"/>
          </mxGeometry>
        </mxCell>
        <mxCell id="irvHG1Zd0JY4UcYgfSvA-45" value="" style="shape=loopLimit;whiteSpace=wrap;html=1;align=left;rotation=180;size=14;" vertex="1" parent="1">
          <mxGeometry x="400" y="260" width="60" height="60" as="geometry"/>
        </mxCell>
        <mxCell id="irvHG1Zd0JY4UcYgfSvA-46" value="Reg&lt;br&gt;File" style="text;html=1;strokeColor=none;fillColor=none;align=center;verticalAlign=middle;whiteSpace=wrap;rounded=0;" vertex="1" parent="1">
          <mxGeometry x="410" y="280" width="40" height="20" as="geometry"/>
        </mxCell>
        <mxCell id="irvHG1Zd0JY4UcYgfSvA-47" value="" style="endArrow=none;html=1;strokeColor=#CC0000;strokeWidth=3;exitX=0;exitY=0.25;exitDx=0;exitDy=0;entryX=0;entryY=0.25;entryDx=0;entryDy=0;" edge="1" parent="1" source="irvHG1Zd0JY4UcYgfSvA-42" target="irvHG1Zd0JY4UcYgfSvA-9">
          <mxGeometry width="50" height="50" relative="1" as="geometry">
            <mxPoint x="29" y="740" as="sourcePoint"/>
            <mxPoint x="269" y="360" as="targetPoint"/>
            <Array as="points">
              <mxPoint x="279" y="377"/>
              <mxPoint x="279" y="363"/>
            </Array>
          </mxGeometry>
        </mxCell>
        <mxCell id="irvHG1Zd0JY4UcYgfSvA-48" value="" style="endArrow=none;html=1;strokeColor=#CC0000;strokeWidth=3;entryX=0;entryY=0.25;entryDx=0;entryDy=0;exitX=0;exitY=0.25;exitDx=0;exitDy=0;" edge="1" parent="1" source="irvHG1Zd0JY4UcYgfSvA-51" target="irvHG1Zd0JY4UcYgfSvA-42">
          <mxGeometry width="50" height="50" relative="1" as="geometry">
            <mxPoint x="179" y="740" as="sourcePoint"/>
            <mxPoint x="229" y="690" as="targetPoint"/>
          </mxGeometry>
        </mxCell>
        <mxCell id="irvHG1Zd0JY4UcYgfSvA-49" value="" style="endArrow=none;dashed=1;html=1;strokeColor=#CC0000;strokeWidth=1;exitX=0;exitY=0.75;exitDx=0;exitDy=0;" edge="1" parent="1" source="irvHG1Zd0JY4UcYgfSvA-42">
          <mxGeometry width="50" height="50" relative="1" as="geometry">
            <mxPoint x="179" y="740" as="sourcePoint"/>
            <mxPoint x="279" y="360" as="targetPoint"/>
            <Array as="points">
              <mxPoint x="279" y="412"/>
            </Array>
          </mxGeometry>
        </mxCell>
        <mxCell id="irvHG1Zd0JY4UcYgfSvA-50" value="" style="endArrow=none;dashed=1;html=1;strokeColor=#CC0000;strokeWidth=1;exitX=0;exitY=0.75;exitDx=0;exitDy=0;entryX=0;entryY=0.75;entryDx=0;entryDy=0;" edge="1" parent="1" source="irvHG1Zd0JY4UcYgfSvA-51" target="irvHG1Zd0JY4UcYgfSvA-42">
          <mxGeometry width="50" height="50" relative="1" as="geometry">
            <mxPoint x="159" y="740" as="sourcePoint"/>
            <mxPoint x="292" y="420" as="targetPoint"/>
          </mxGeometry>
        </mxCell>
        <mxCell id="irvHG1Zd0JY4UcYgfSvA-51" value="Micro Op&lt;br&gt;Decode&lt;br&gt;/&lt;br&gt;Fetch&lt;br&gt;Operand" style="rounded=0;whiteSpace=wrap;html=1;" vertex="1" parent="1">
          <mxGeometry x="345" y="360" width="60" height="80" as="geometry"/>
        </mxCell>
        <mxCell id="irvHG1Zd0JY4UcYgfSvA-52" value="" style="endArrow=classicThin;html=1;strokeColor=#FF9933;strokeWidth=2;exitX=0.75;exitY=0;exitDx=0;exitDy=0;entryX=0.75;entryY=0;entryDx=0;entryDy=0;endSize=1;endFill=1;" edge="1" parent="1" source="irvHG1Zd0JY4UcYgfSvA-51" target="irvHG1Zd0JY4UcYgfSvA-45">
          <mxGeometry width="50" height="50" relative="1" as="geometry">
            <mxPoint x="415" y="397.5" as="sourcePoint"/>
            <mxPoint x="465" y="347.5" as="targetPoint"/>
            <Array as="points">
              <mxPoint x="390" y="340"/>
              <mxPoint x="415" y="340"/>
            </Array>
          </mxGeometry>
        </mxCell>
        <mxCell id="irvHG1Zd0JY4UcYgfSvA-53" value="" style="endArrow=classic;html=1;strokeColor=#FF9933;strokeWidth=2;endSize=1;entryX=0.25;entryY=0;entryDx=0;entryDy=0;exitX=1;exitY=0.5;exitDx=0;exitDy=0;" edge="1" parent="1" source="irvHG1Zd0JY4UcYgfSvA-45" target="irvHG1Zd0JY4UcYgfSvA-51">
          <mxGeometry width="50" height="50" relative="1" as="geometry">
            <mxPoint x="99" y="740" as="sourcePoint"/>
            <mxPoint x="149" y="690" as="targetPoint"/>
            <Array as="points">
              <mxPoint x="379" y="290"/>
              <mxPoint x="379" y="320"/>
              <mxPoint x="360" y="320"/>
            </Array>
          </mxGeometry>
        </mxCell>
        <mxCell id="irvHG1Zd0JY4UcYgfSvA-54" value="" style="endArrow=none;html=1;strokeColor=#CC0000;strokeWidth=3;entryX=1;entryY=0.25;entryDx=0;entryDy=0;exitX=0;exitY=0.25;exitDx=0;exitDy=0;endSize=6;endFill=0;startArrow=none;startFill=0;startSize=1;" edge="1" parent="1" source="irvHG1Zd0JY4UcYgfSvA-15" target="irvHG1Zd0JY4UcYgfSvA-51">
          <mxGeometry width="50" height="50" relative="1" as="geometry">
            <mxPoint x="39" y="740" as="sourcePoint"/>
            <mxPoint x="89" y="690" as="targetPoint"/>
            <Array as="points">
              <mxPoint x="450" y="483"/>
              <mxPoint x="450" y="380"/>
            </Array>
          </mxGeometry>
        </mxCell>
        <mxCell id="irvHG1Zd0JY4UcYgfSvA-55" value="Int&amp;nbsp;" style="rounded=0;whiteSpace=wrap;html=1;align=right;labelPosition=left;verticalLabelPosition=middle;verticalAlign=middle;strokeWidth=2;" vertex="1" parent="1">
          <mxGeometry x="510" y="397.5588235294117" width="90" height="30" as="geometry"/>
        </mxCell>
        <mxCell id="irvHG1Zd0JY4UcYgfSvA-56" value="" style="endArrow=none;html=1;exitX=0.338;exitY=0.997;exitDx=0;exitDy=0;exitPerimeter=0;entryX=0.342;entryY=0.003;entryDx=0;entryDy=0;entryPerimeter=0;strokeWidth=2;" edge="1" parent="1" source="irvHG1Zd0JY4UcYgfSvA-55" target="irvHG1Zd0JY4UcYgfSvA-55">
          <mxGeometry width="50" height="50" relative="1" as="geometry">
            <mxPoint x="-20" y="499.5588235294117" as="sourcePoint"/>
            <mxPoint x="381" y="319.5588235294117" as="targetPoint"/>
          </mxGeometry>
        </mxCell>
        <mxCell id="irvHG1Zd0JY4UcYgfSvA-57" value="" style="endArrow=none;html=1;exitX=0.668;exitY=1.01;exitDx=0;exitDy=0;exitPerimeter=0;entryX=0.672;entryY=-0.003;entryDx=0;entryDy=0;entryPerimeter=0;strokeWidth=2;" edge="1" parent="1" source="irvHG1Zd0JY4UcYgfSvA-55" target="irvHG1Zd0JY4UcYgfSvA-55">
          <mxGeometry width="50" height="50" relative="1" as="geometry">
            <mxPoint x="419.79999999999995" y="379.9388235294118" as="sourcePoint"/>
            <mxPoint x="420" y="319.5588235294117" as="targetPoint"/>
          </mxGeometry>
        </mxCell>
        <mxCell id="irvHG1Zd0JY4UcYgfSvA-58" value="" style="endArrow=none;dashed=1;html=1;strokeColor=#CC0000;strokeWidth=1;entryX=1;entryY=0.75;entryDx=0;entryDy=0;exitX=0;exitY=0.25;exitDx=0;exitDy=0;" edge="1" parent="1" source="irvHG1Zd0JY4UcYgfSvA-15" target="irvHG1Zd0JY4UcYgfSvA-51">
          <mxGeometry width="50" height="50" relative="1" as="geometry">
            <mxPoint x="59" y="740" as="sourcePoint"/>
            <mxPoint x="109" y="690" as="targetPoint"/>
            <Array as="points">
              <mxPoint x="439" y="483"/>
              <mxPoint x="439" y="420"/>
            </Array>
          </mxGeometry>
        </mxCell>
        <mxCell id="irvHG1Zd0JY4UcYgfSvA-61" value="" style="endArrow=classicThin;html=1;strokeColor=#999900;strokeWidth=2;endSize=1;startSize=1;endFill=1;entryX=0.25;entryY=0;entryDx=0;entryDy=0;exitX=0.5;exitY=0;exitDx=0;exitDy=0;" edge="1" parent="1" source="irvHG1Zd0JY4UcYgfSvA-10" target="irvHG1Zd0JY4UcYgfSvA-45">
          <mxGeometry width="50" height="50" relative="1" as="geometry">
            <mxPoint x="159" y="740" as="sourcePoint"/>
            <mxPoint x="209" y="690" as="targetPoint"/>
            <Array as="points">
              <mxPoint x="660" y="340"/>
              <mxPoint x="639" y="340"/>
              <mxPoint x="519" y="340"/>
              <mxPoint x="445" y="340"/>
            </Array>
          </mxGeometry>
        </mxCell>
        <mxCell id="irvHG1Zd0JY4UcYgfSvA-62" value="" style="endArrow=classicThin;html=1;strokeColor=#4D9900;strokeWidth=3;endFill=1;startSize=4;endSize=1;entryX=0;entryY=0.5;entryDx=0;entryDy=0;exitX=1;exitY=0.5;exitDx=0;exitDy=0;" edge="1" parent="1" source="irvHG1Zd0JY4UcYgfSvA-15" target="irvHG1Zd0JY4UcYgfSvA-10">
          <mxGeometry width="50" height="50" relative="1" as="geometry">
            <mxPoint x="129" y="740" as="sourcePoint"/>
            <mxPoint x="679" y="426.75" as="targetPoint"/>
            <Array as="points">
              <mxPoint x="610" y="494"/>
              <mxPoint x="629" y="494"/>
            </Array>
          </mxGeometry>
        </mxCell>
        <mxCell id="irvHG1Zd0JY4UcYgfSvA-64" value="" style="endArrow=none;html=1;strokeColor=#000000;strokeWidth=1;entryX=1;entryY=0.5;entryDx=0;entryDy=0;exitX=0;exitY=0.5;exitDx=0;exitDy=0;" edge="1" parent="1" source="irvHG1Zd0JY4UcYgfSvA-42" target="irvHG1Zd0JY4UcYgfSvA-42">
          <mxGeometry width="50" height="50" relative="1" as="geometry">
            <mxPoint x="29" y="740" as="sourcePoint"/>
            <mxPoint x="79" y="690" as="targetPoint"/>
          </mxGeometry>
        </mxCell>
        <mxCell id="irvHG1Zd0JY4UcYgfSvA-65" value="" style="endArrow=classic;html=1;strokeColor=#009999;entryX=0;entryY=0.75;entryDx=0;entryDy=0;exitX=0.25;exitY=1;exitDx=0;exitDy=0;strokeWidth=2;startSize=3;endSize=1;" edge="1" parent="1" source="irvHG1Zd0JY4UcYgfSvA-51" target="irvHG1Zd0JY4UcYgfSvA-11">
          <mxGeometry width="50" height="50" relative="1" as="geometry">
            <mxPoint x="69" y="770" as="sourcePoint"/>
            <mxPoint x="119" y="720" as="targetPoint"/>
            <Array as="points">
              <mxPoint x="360" y="490"/>
              <mxPoint x="279" y="490"/>
              <mxPoint x="279" y="673"/>
            </Array>
          </mxGeometry>
        </mxCell>
        <mxCell id="irvHG1Zd0JY4UcYgfSvA-66" value="" style="endArrow=classic;html=1;strokeColor=#009999;entryX=0.75;entryY=1;entryDx=0;entryDy=0;exitX=0;exitY=0.25;exitDx=0;exitDy=0;strokeWidth=2;startSize=3;endSize=1;" edge="1" parent="1" source="irvHG1Zd0JY4UcYgfSvA-11" target="irvHG1Zd0JY4UcYgfSvA-51">
          <mxGeometry width="50" height="50" relative="1" as="geometry">
            <mxPoint x="370" y="450" as="sourcePoint"/>
            <mxPoint x="341" y="682.5" as="targetPoint"/>
            <Array as="points">
              <mxPoint x="289" y="658"/>
              <mxPoint x="289" y="500"/>
              <mxPoint x="390" y="500"/>
            </Array>
          </mxGeometry>
        </mxCell>
        <mxCell id="irvHG1Zd0JY4UcYgfSvA-67" value="" style="endArrow=classic;html=1;strokeColor=#009999;entryX=1;entryY=0.5;entryDx=0;entryDy=0;exitX=0.5;exitY=1;exitDx=0;exitDy=0;strokeWidth=2;startSize=3;endSize=1;" edge="1" parent="1" source="irvHG1Zd0JY4UcYgfSvA-10" target="irvHG1Zd0JY4UcYgfSvA-11">
          <mxGeometry width="50" height="50" relative="1" as="geometry">
            <mxPoint x="690" y="627" as="sourcePoint"/>
            <mxPoint x="341" y="682.5" as="targetPoint"/>
            <Array as="points">
              <mxPoint x="660" y="665"/>
            </Array>
          </mxGeometry>
        </mxCell>
        <mxCell id="irvHG1Zd0JY4UcYgfSvA-68" value="" style="endArrow=classicThin;html=1;strokeColor=#4D9900;strokeWidth=3;endFill=1;startSize=4;endSize=1;exitX=1;exitY=0.5;exitDx=0;exitDy=0;entryX=0;entryY=0.5;entryDx=0;entryDy=0;" edge="1" parent="1" source="irvHG1Zd0JY4UcYgfSvA-10" target="irvHG1Zd0JY4UcYgfSvA-45">
          <mxGeometry width="50" height="50" relative="1" as="geometry">
            <mxPoint x="610" y="422.5588235294117" as="sourcePoint"/>
            <mxPoint x="660" y="503.5" as="targetPoint"/>
            <Array as="points">
              <mxPoint x="689" y="494"/>
              <mxPoint x="689" y="320"/>
              <mxPoint x="499" y="320"/>
              <mxPoint x="499" y="290"/>
            </Array>
          </mxGeometry>
        </mxCell>
      </root>
    </mxGraphModel>
  </diagram>
</mxfile>
